<svg width="97" height="96" xmlns="http://www.w3.org/2000/svg" xmlns:xlink="http://www.w3.org/1999/xlink" overflow="hidden"><defs><clipPath id="clip0"><rect x="616" y="484" width="97" height="96"/></clipPath><clipPath id="clip1"><rect x="617" y="484" width="96" height="96"/></clipPath><clipPath id="clip2"><rect x="617" y="484" width="96" height="96"/></clipPath><clipPath id="clip3"><rect x="617" y="484" width="96" height="96"/></clipPath></defs><g clip-path="url(#clip0)" transform="translate(-616 -484)"><g clip-path="url(#clip1)"><g clip-path="url(#clip2)"><g clip-path="url(#clip3)"><path d="M641 562C639.343 562 638 560.657 638 559L638 514C638 512.343 639.343 511 641 511L644.5 511C645.31 511.018 645.982 510.377 646 509.567 646 509.544 646 509.522 646 509.5L646 505 672 505 672 509.5C671.982 510.31 672.623 510.982 673.433 511 673.456 511 673.478 511 673.5 511L677 511C678.657 511 680 512.343 680 514L680 521.99 648 521.99C646.895 521.99 646 522.885 646 523.99L646 541.99C646 543.095 646.895 543.99 648 543.99L680 543.99 680 552.983 682 552.983 682 514C681.997 511.24 679.76 509.003 677 509L674 509 674 505 676 505C677.068 505.037 677.963 504.202 678 503.134 678.002 503.09 678.002 503.045 678 503L678 497C677.997 494.24 675.76 492.003 673 492L645 492C642.24 492.003 640.003 494.24 640 497L640 503C639.963 504.068 640.798 504.963 641.866 505 641.91 505.002 641.955 505.002 642 505L644 505 644 509 641 509C638.24 509.003 636.003 511.24 636 514L636 559C636.003 561.76 638.24 563.997 641 564L659.026 564C659.017 563.825 658.999 563.652 658.999 563.475 659.003 562.981 659.042 562.488 659.115 562ZM648 541.983 648 523.983 680 523.983 680 541.983ZM642 503 642 497C642 495.343 643.343 494 645 494L673 494C674.657 494 676 495.343 676 497L676 503 642 503Z" fill="#000000" fill-rule="nonzero" fill-opacity="1"/><path d="M686.438 556 669.562 556C665.42 556 662.062 559.358 662.062 563.5 662.062 567.642 665.42 571 669.562 571L686.438 571C690.58 571 693.938 567.642 693.938 563.5 693.938 559.358 690.58 556 686.438 556ZM664.061 563.5C664.065 560.464 666.525 558.004 669.561 558L677.061 558 677.061 569 669.561 569C666.525 568.996 664.065 566.536 664.061 563.5ZM686.438 569 679.061 569 679.061 558 686.438 558C689.476 558 691.938 560.462 691.938 563.5 691.938 566.538 689.476 569 686.438 569Z" fill="#000000" fill-rule="nonzero" fill-opacity="1"/></g></g></g></g></svg>