<?xml version="1.0" encoding="utf-8"?>
<!-- Svg Vector Icons : http://www.onlinewebfonts.com/icon -->
<!DOCTYPE svg PUBLIC "-//W3C//DTD SVG 1.1//EN" "http://www.w3.org/Graphics/SVG/1.1/DTD/svg11.dtd">
<svg version="1.1" xmlns="http://www.w3.org/2000/svg" xmlns:xlink="http://www.w3.org/1999/xlink" x="0px" y="0px" viewBox="0 0 1000 1000" enable-background="new 0 0 1000 1000" xml:space="preserve">
<metadata> Svg Vector Icons : http://www.onlinewebfonts.com/icon </metadata>
<g><g><g><path d="M500,10C229.9,10,10,229.8,10,500C10,770.2,229.9,990,500,990c270.2,0,490-219.8,490-489.9C990,229.8,770.2,10,500,10z M521.2,728.3v77.6h-47v-74.5c-43.2-0.8-87.3-14.3-113.3-32.9l17.9-49.9c26,17.1,64.9,32,106.7,32c52.9,0,84-30.5,83.9-73.2c0.1-41-24.3-66.4-79.5-88.8c-76-29.9-123.1-64.9-123.1-129.8c0-61.9,43.9-108.8,111.9-120.1v-74.6h47v72.5c44,1.4,74.6,13.4,96.9,26L604,341.9c-15.7-8.9-46.2-26.1-94-26.1c-57.5,0-74.3,34.4-74.3,64.9c0,38.1,22.8,57.4,87.8,85c76.8,31.4,115.6,69.5,115.6,135.9C639.1,661.1,598.1,716.4,521.2,728.3z"/></g></g><g></g><g></g><g></g><g></g><g></g><g></g><g></g><g></g><g></g><g></g><g></g><g></g><g></g><g></g><g></g></g>
</svg>