<svg width="98" height="97" xmlns="http://www.w3.org/2000/svg" xmlns:xlink="http://www.w3.org/1999/xlink" overflow="hidden"><defs><clipPath id="clip0"><rect x="958" y="609" width="98" height="97"/></clipPath><clipPath id="clip1"><rect x="959" y="610" width="96" height="96"/></clipPath><clipPath id="clip2"><rect x="959" y="610" width="96" height="96"/></clipPath><clipPath id="clip3"><rect x="959" y="610" width="96" height="96"/></clipPath></defs><g clip-path="url(#clip0)" transform="translate(-958 -609)"><g clip-path="url(#clip1)"><g clip-path="url(#clip2)"><g clip-path="url(#clip3)"><path d="M1042 664 1032 654 1008 654 1008 619C1008 618.448 1007.55 618 1007 618 1006.45 618 1006 618.448 1006 619L1006 630 982 630 972 640 982 650 1006 650 1006 698 1008 698 1008 674 1032 674ZM982.828 648 974.828 640 982.828 632 1006 632 1006 648ZM1008 672 1008 656 1031.17 656 1039.17 664 1031.17 672Z" fill="#000000" fill-rule="nonzero" fill-opacity="1"/></g></g></g></g></svg>