<svg width="98" height="96" xmlns="http://www.w3.org/2000/svg" xmlns:xlink="http://www.w3.org/1999/xlink" overflow="hidden"><defs><clipPath id="clip0"><rect x="978" y="104" width="98" height="96"/></clipPath><clipPath id="clip1"><rect x="979" y="104" width="96" height="96"/></clipPath><clipPath id="clip2"><rect x="979" y="104" width="96" height="96"/></clipPath><clipPath id="clip3"><rect x="979" y="104" width="96" height="96"/></clipPath></defs><g clip-path="url(#clip0)" transform="translate(-978 -104)"><g clip-path="url(#clip1)"><g clip-path="url(#clip2)"><g clip-path="url(#clip3)"><path d="M1064.4 162.7 1064.4 155.6C1064.4 150.8 1056.7 147.6 1047.4 146.3L1047.4 140.6C1047.4 139 1046.5 136.8 1042.4 134.7L1042.4 127.6C1042.4 121.1 1028.5 117.6 1015.4 117.6 1002.3 117.6 988.4 121.1 988.4 127.6L988.4 135.6C988.4 138 990.3 140 993.4 141.6L993.4 148.6C993.4 148.6 993.4 148.6 993.4 148.7 989.3 150.8 988.4 153.1 988.4 154.6L988.4 162.6C988.4 169.1 1002.3 172.6 1015.4 172.6L1015.4 176.6C1015.4 183.1 1029.3 186.6 1042.4 186.6 1055.5 186.6 1069.4 183.1 1069.4 176.6L1069.4 168.6C1069.4 167.1 1068.5 164.8 1064.4 162.7ZM1067.4 168.7C1067.4 172.5 1057.1 176.7 1042.4 176.7 1030.7 176.7 1021.8 174 1018.6 171 1018.6 171 1018.6 171 1018.6 171 1024.7 172.9 1031 173.8 1037.3 173.7 1049.5 173.7 1062.5 170.6 1064.1 165 1066.3 166.1 1067.4 167.4 1067.4 168.7ZM1050.4 178.2 1050.4 184.2C1049.1 184.3 1047.8 184.5 1046.4 184.5L1046.4 178.5C1047.8 178.5 1049.1 178.4 1050.4 178.2ZM1052.4 178C1053.8 177.8 1055.1 177.6 1056.4 177.3L1056.4 183.2C1055.2 183.5 1053.8 183.7 1052.4 183.9L1052.4 178ZM1058.4 176.8C1059.8 176.5 1061.1 176 1062.4 175.5L1062.4 181.3C1061.1 181.9 1059.8 182.3 1058.4 182.7L1058.4 176.8ZM1026.4 182.7C1025 182.3 1023.7 181.9 1022.4 181.3L1022.4 175.5C1023.7 176 1025 176.4 1026.4 176.8L1026.4 182.7ZM1028.4 177.3C1029.7 177.6 1031 177.8 1032.4 178L1032.4 184C1031 183.8 1029.6 183.5 1028.4 183.3L1028.4 177.3ZM1034.4 178.2C1035.7 178.3 1037.1 178.5 1038.4 178.5L1038.4 184.5C1037 184.4 1035.7 184.3 1034.4 184.2L1034.4 178.2ZM1010.4 155.7 1010.4 156C1009 155.8 1007.6 155.5 1006.4 155.3L1006.4 149.4C1007.7 149.7 1009 149.9 1010.4 150.1L1010.4 155.7ZM1012.4 163.7 1012.4 159.7C1013.3 160.5 1014.3 161.2 1015.4 161.7L1015.4 167.4C1013.5 166.1 1012.4 164.9 1012.4 163.7ZM1062.4 163.7C1062.4 164.9 1061.3 166.2 1059.4 167.3L1059.4 161.6C1060.5 161.1 1061.5 160.4 1062.4 159.6L1062.4 163.7ZM1057.4 168.3C1056.1 168.9 1054.8 169.3 1053.4 169.7L1053.4 163.8C1054.8 163.5 1056.1 163 1057.4 162.5L1057.4 168.3ZM1051.4 170.2C1050.2 170.5 1048.8 170.7 1047.4 170.9L1047.4 164.9C1048.8 164.7 1050.1 164.5 1051.4 164.2L1051.4 170.2ZM1045.4 171.2C1044.1 171.3 1042.8 171.5 1041.4 171.5L1041.4 165.5C1042.7 165.4 1044.1 165.3 1045.4 165.2L1045.4 171.2ZM1039.4 171.6C1038.7 171.6 1038.1 171.6 1037.4 171.6 1036.7 171.6 1036.1 171.6 1035.4 171.6L1035.4 165.6C1036.1 165.6 1036.7 165.6 1037.4 165.6 1038.1 165.6 1038.7 165.6 1039.4 165.6L1039.4 171.6ZM1033.4 171.6C1032 171.5 1030.7 171.4 1029.4 171.3L1029.4 165.3C1030.7 165.4 1032.1 165.6 1033.4 165.6L1033.4 171.6ZM1027.4 171C1026 170.8 1024.6 170.5 1023.4 170.3L1023.4 164.4C1024.7 164.7 1026 164.9 1027.4 165.1L1027.4 171ZM1021.4 169.7C1020 169.3 1018.7 168.9 1017.4 168.3L1017.4 162.5C1018.7 163 1020 163.4 1021.4 163.8L1021.4 169.7ZM1062.4 155.7C1062.4 159.5 1052.1 163.7 1037.4 163.7 1022.7 163.7 1012.4 159.5 1012.4 155.7 1012.4 151.9 1022.7 147.7 1037.4 147.7 1052.1 147.7 1062.4 151.9 1062.4 155.7ZM1012.4 151.7 1012.4 150.2C1013 150.3 1013.6 150.3 1014.2 150.4 1013.6 150.8 1013 151.2 1012.4 151.7ZM1043.7 145.9C1044.3 145.5 1044.9 145.1 1045.5 144.6L1045.5 146.1C1044.8 146 1044.3 146 1043.7 145.9ZM1042.2 136.9C1044.3 138.1 1045.4 139.4 1045.4 140.6 1045.4 142.3 1043.2 144.2 1039.5 145.6 1038.8 145.6 1038.1 145.6 1037.4 145.6 1030.4 145.6 1023.1 146.6 1017.9 148.6 1007.4 148.3 999.6 145.8 996.7 143 996.7 143 996.7 143 996.7 143 1002.8 144.9 1009.1 145.8 1015.4 145.7 1027.6 145.7 1040.6 142.6 1042.2 136.9ZM1004.4 148.8 1004.4 154.7C1003 154.3 1001.7 153.9 1000.4 153.3L1000.4 147.5C1001.7 148 1003.1 148.5 1004.4 148.8ZM998.4 146.6 998.4 152.3C996.5 151.1 995.4 149.9 995.4 148.7L995.4 144.7C996.3 145.4 997.3 146.1 998.4 146.6ZM995.4 140.3 995.4 134.5C996.7 135 998 135.4 999.4 135.8L999.4 141.7C998.1 141.3 996.7 140.9 995.4 140.3ZM1001.4 142.2 1001.4 136.3C1002.7 136.6 1004 136.8 1005.4 137L1005.4 143C1004 142.8 1002.7 142.5 1001.4 142.2ZM1007.4 143.2 1007.4 137.2C1008.7 137.3 1010.1 137.5 1011.4 137.5L1011.4 143.5C1010 143.5 1008.7 143.4 1007.4 143.2ZM1013.4 143.6 1013.4 137.6C1014.1 137.6 1014.7 137.6 1015.4 137.6 1016.1 137.6 1016.7 137.6 1017.4 137.6L1017.4 143.6C1016.7 143.6 1016.1 143.6 1015.4 143.6 1014.7 143.6 1014.1 143.7 1013.4 143.6ZM1019.4 143.6 1019.4 137.6C1020.7 137.5 1022.1 137.4 1023.4 137.3L1023.4 143.3C1022.1 143.4 1020.8 143.5 1019.4 143.6ZM1025.4 143 1025.4 137C1026.8 136.8 1028.1 136.6 1029.4 136.3L1029.4 142.2C1028.2 142.5 1026.8 142.8 1025.4 143ZM1031.4 141.7 1031.4 135.8C1032.8 135.5 1034.1 135 1035.4 134.5L1035.4 140.3C1034.1 140.9 1032.8 141.3 1031.4 141.7ZM1037.4 139.3 1037.4 133.6C1038.5 133.1 1039.5 132.4 1040.4 131.6L1040.4 135.6C1040.4 136.9 1039.4 138.1 1037.4 139.3ZM993.4 139.3C991.5 138.1 990.4 136.9 990.4 135.7L990.4 131.7C991.3 132.5 992.3 133.2 993.4 133.7L993.4 139.3ZM990.4 127.7C990.4 123.9 1000.7 119.7 1015.4 119.7 1030.1 119.7 1040.4 123.9 1040.4 127.7 1040.4 131.5 1030.1 135.7 1015.4 135.7 1000.7 135.7 990.4 131.4 990.4 127.7ZM993.9 150.7C995.7 154.4 1002.5 156.8 1010.4 157.9L1010.4 162.4C998.4 161.6 990.4 157.9 990.4 154.6 990.4 153.3 991.7 152 993.9 150.7ZM993.4 166.3C991.5 165.1 990.4 163.9 990.4 162.7L990.4 158.7C991.3 159.5 992.3 160.2 993.4 160.7L993.4 166.3ZM999.4 168.7C998 168.3 996.7 167.9 995.4 167.3L995.4 161.5C996.7 162 998 162.4 999.4 162.8L999.4 168.7ZM1005.4 170C1004 169.8 1002.6 169.5 1001.4 169.3L1001.4 163.4C1002.7 163.7 1004 163.9 1005.4 164.1L1005.4 170ZM1007.4 164.2C1008.4 164.3 1009.4 164.4 1010.5 164.5 1010.6 165.2 1011 165.9 1011.4 166.6L1011.4 170.6C1010 170.5 1008.7 170.4 1007.4 170.3L1007.4 164.2ZM1013.4 168.4C1014 168.8 1014.7 169.2 1015.4 169.6L1015.4 170.6C1014.7 170.6 1014.1 170.6 1013.4 170.6L1013.4 168.4ZM1017.4 176.7 1017.4 172.7C1018.3 173.5 1019.3 174.2 1020.4 174.7L1020.4 180.4C1018.5 179.1 1017.4 177.9 1017.4 176.7ZM1040.4 178.6C1041.1 178.6 1041.7 178.6 1042.4 178.6 1043.1 178.6 1043.7 178.6 1044.4 178.6L1044.4 184.6C1043.7 184.6 1043.1 184.6 1042.4 184.6 1041.7 184.6 1041.1 184.6 1040.4 184.6L1040.4 178.6ZM1064.4 174.6C1065.5 174.1 1066.5 173.4 1067.4 172.6L1067.4 176.6C1067.4 177.8 1066.3 179.1 1064.4 180.2L1064.4 174.6Z" fill="#000000" fill-rule="nonzero" fill-opacity="1"/></g></g></g></g></svg>